<?xml version="1.0" encoding="UTF-8" standalone="no"?>
<!-- Created with Inkscape (http://www.inkscape.org/) -->

<svg
   width="24"
   height="24"
   viewBox="0 0 12.7 12.7"
   version="1.1"
   id="svg1"
   inkscape:version="1.3 (0e150ed6c4, 2023-07-21)"
   sodipodi:docname="archive.svg"
   xmlns:inkscape="http://www.inkscape.org/namespaces/inkscape"
   xmlns:sodipodi="http://sodipodi.sourceforge.net/DTD/sodipodi-0.dtd"
   xmlns="http://www.w3.org/2000/svg"
   xmlns:svg="http://www.w3.org/2000/svg">
  <sodipodi:namedview
     id="namedview1"
     pagecolor="#ffffff"
     bordercolor="#000000"
     borderopacity="0.25"
     inkscape:showpageshadow="2"
     inkscape:pageopacity="0.0"
     inkscape:pagecheckerboard="0"
     inkscape:deskcolor="#d1d1d1"
     inkscape:document-units="mm"
     inkscape:zoom="16.329747"
     inkscape:cx="11.298399"
     inkscape:cy="8.9101196"
     inkscape:window-width="1920"
     inkscape:window-height="974"
     inkscape:window-x="-11"
     inkscape:window-y="-11"
     inkscape:window-maximized="1"
     inkscape:current-layer="layer3" />
  <defs
     id="defs1">
    <inkscape:path-effect
       effect="fillet_chamfer"
       id="path-effect1"
       is_visible="true"
       lpeversion="1"
       nodesatellites_param="F,0,0,1,0,0.63719156,0,1 @ F,0,0,1,0,3.4829048,0,1 @ F,0,0,1,0,0,0,1 @ F,0,0,1,0,0.72427218,0,1"
       radius="0"
       unit="px"
       method="auto"
       mode="F"
       chamfer_steps="1"
       flexible="false"
       use_knot_distance="true"
       apply_no_radius="true"
       apply_with_radius="true"
       only_selected="false"
       hide_knots="false" />
    <linearGradient
       id="swatch45"
       inkscape:swatch="solid">
      <stop
         style="stop-color:#000000;stop-opacity:1;"
         offset="0"
         id="stop45" />
    </linearGradient>
    <linearGradient
       id="swatch44"
       inkscape:swatch="solid">
      <stop
         style="stop-color:#000000;stop-opacity:1;"
         offset="0"
         id="stop44" />
    </linearGradient>
    <linearGradient
       id="swatch43"
       inkscape:swatch="solid">
      <stop
         style="stop-color:#e58b51;stop-opacity:1;"
         offset="0"
         id="stop43" />
    </linearGradient>
    <clipPath
       clipPathUnits="userSpaceOnUse"
       id="clipPath30">
      <path
         id="path31"
         style="fill:#ff0000;fill-opacity:1;fill-rule:nonzero;stroke:none;stroke-width:0.264583"
         d="M 1.2707235,1.4541748 V 3.2204753 H 1.7316772 C 1.4283442,3.0873282 1.5102331,2.702129 1.9776571,2.6923421 c 0.1446154,-0.00303 0.28842,-0.018502 0.4330485,-0.02377 0.2005924,-0.00375 0.4007336,0.015719 0.600997,0.025321 0.1786909,0.00997 0.3581683,0.00628 0.5369179,0.013436 0.079727,0.00319 0.1387496,0.00869 0.2087729,0.014986 0.058692,-0.069058 0.1629757,-0.1173971 0.3095419,-0.1157554 0.031292,3.519e-4 0.064151,0.00312 0.099219,0.00827 0.1805472,0.026503 0.3746027,0.033557 0.5312336,0.1379762 0.012404,0.00855 0.025458,0.015901 0.037207,0.025321 8.466e-4,6.879e-4 -0.00298,0.00198 -0.00206,0.00259 0.036312,0.024273 0.082535,0.035819 0.12299,0.050126 0.074126,0.023479 0.3445528,0.084538 0.3482991,0.1777669 0.00291,0.072356 -0.015198,0.1423403 -0.038758,0.2118733 H 5.4658194 V 2.6794307 c -0.037415,8.731e-4 -0.074926,9.26e-4 -0.1121378,0.00414 -0.0895,0.00584 -0.1789121,0.013264 -0.267684,0.026355 -0.061321,0.00958 -0.1303534,0.014674 -0.1844847,-0.023254 -0.011568,-0.0081 -0.020656,-0.019328 -0.031006,-0.028939 -0.00689,-0.01539 -0.017671,-0.029401 -0.020672,-0.045992 -0.010922,-0.06053 0.026006,-0.1003578 0.072347,-0.1260951 -0.048511,-0.026159 -0.064353,-0.055965 -0.050645,-0.1043956 -3.81e-5,-0.00333 -8.71e-5,-0.0065 0,-0.00982 H 4.871008 c -1.535e-4,0.00104 -3.704e-4,0.00206 -5.292e-4,0.0031 -1.518e-4,9.896e-4 -0.00101,-0.00298 0,-0.0031 h 5.292e-4 c 8.467e-4,-0.00566 8.731e-4,-0.011371 0.00156,-0.017053 1.334e-4,-0.00102 3.705e-4,-0.00209 5.292e-4,-0.0031 v -5.159e-4 c 0.00674,-0.0584 0.00678,-0.1178322 0.01292,-0.1762166 0.00432,-0.063795 0.00955,-0.1274805 0.01447,-0.1912028 -0.017867,0.040088 -0.085029,0.059772 -0.1648476,0.01602 -0.031428,-0.017227 -0.062352,-0.035129 -0.093018,-0.053743 -0.010893,0.00532 -0.022566,0.00941 -0.035657,0.011886 -0.015743,0.00298 -0.032038,-1.019e-4 -0.048059,0 C 4.4711842,1.9490413 4.4104467,1.8849275 4.3459879,1.8319295 4.276974,1.780536 4.2037696,1.7352276 4.1330811,1.686202 4.0730189,1.6436157 4.007245,1.6105692 3.9423951,1.5761312 3.8690145,1.5392348 3.7975646,1.4987173 3.7279379,1.4552083 c -5.556e-4,-3.413e-4 -0.00101,-6.958e-4 -0.00156,-0.00103 z m 2.9770791,0 c 9.26e-4,0.00116 0.00164,0.00246 0.00259,0.00362 0.00746,0.00404 0.014774,0.00835 0.02222,0.012402 0.0013,-0.00222 0.00228,-0.00452 0.00362,-0.00672 2.132e-4,-0.00313 9.525e-4,-0.00623 0.00156,-0.0093 z M 4.900476,1.9378662 c 0.00108,0.00281 0.00188,0.00551 0.00259,0.00827 1.439e-4,-0.0019 3.704e-4,-0.00379 5.292e-4,-0.00568 -0.00122,-0.00104 -0.00193,-0.00162 -0.0031,-0.00259 z m 0.096635,0.6898804 c -0.00509,0.00251 -0.00989,0.00514 -0.012401,0.00775 -0.00164,0.00171 0.00495,-0.001 0.00672,-0.00258 0.00193,-0.00171 0.00384,-0.00331 0.00568,-0.00517 z M 4.903577,2.9000815 c -0.005,0.00135 -0.01,0.00273 -0.014986,0.00414 0.00238,-4.762e-4 0.00488,-5.291e-4 0.00723,-0.00103 0.00262,-5.821e-4 0.010332,-0.0038 0.00775,-0.0031 z" />
    </clipPath>
    <clipPath
       clipPathUnits="userSpaceOnUse"
       id="clipPath39">
      <path
         id="path40"
         style="fill:#ff0000;fill-opacity:1;fill-rule:nonzero;stroke:none;stroke-width:0.264583"
         d="m 1.0392131,2.723348 v 9.287288 H 11.964128 V 2.723348 H 5.6652872 c -0.020714,0.04326 -0.06601,0.085462 -0.1410767,0.1142048 -0.098406,0.03768 -0.050667,0.019508 -0.1426268,0.055811 -0.067956,0.024064 -0.1363424,0.046912 -0.2051555,0.068213 0.015372,0.014719 0.026711,0.030172 0.027389,0.047026 0.00589,0.1465479 -0.074461,0.2839381 -0.1116211,0.4258138 -0.028048,0.00975 -0.055569,0.021188 -0.084233,0.028939 -0.1197073,0.032381 -0.248766,0.00922 -0.3700034,0.00517 C 4.4810082,3.4537449 4.3228755,3.4360477 4.1744223,3.3796385 4.0381481,3.3341934 3.8957454,3.3084281 3.7527426,3.2969562 3.6849383,3.2908708 3.6061454,3.2826026 3.5382854,3.2799039 3.3538104,3.2725643 3.1687222,3.2763399 2.984314,3.2659497 2.7998272,3.2570473 2.6155775,3.2397065 2.4308594,3.2411458 2.2795968,3.2460882 2.1290335,3.2645244 1.9776571,3.2654346 1.9018313,3.2658844 1.8373373,3.2552058 1.7818034,3.238046 v 0.03359 c 0,0.2835437 -0.2868042,0.2835437 -0.2868042,0 V 3.1610483 2.9496917 2.7233488 Z m 0.7425903,0 v 0.00103 c 9.234e-4,-3.175e-4 0.00165,-7.408e-4 0.00259,-0.00103 z" />
    </clipPath>
  </defs>
  <g
     inkscape:groupmode="layer"
     id="layer3"
     inkscape:label="Layer 2">
    <rect
       style="display:inline;fill:#d57979;fill-opacity:1;stroke:#000000;stroke-width:0.0073827;stroke-miterlimit:3.8;stroke-dasharray:none"
       id="rect45"
       width="12.994197"
       height="13.026601"
       x="-0.35633588"
       y="-0.25912035" />
  </g>
  <g
     inkscape:label="Layer 1"
     inkscape:groupmode="layer"
     id="layer1"
     style="display:inline">
    <path
       style="display:inline;fill:#7b9167;fill-opacity:1;stroke:#000000;stroke-width:0.404585;stroke-linecap:round;stroke-miterlimit:3.8"
       d="M 1.3567151,2.4738031 11.687071,2.4052844 9.7925777,3.981209 l 1.5370423,0.44537 -1.251082,0.6166661 1.036611,0.7537029 -0.96512,0.479629 0.96512,0.6851846 -1.000866,0.8564805 0.929376,0.8222224 -0.965121,0.2398132 0.893628,0.6166666 -1.0366082,0.6166657 1.1795912,0.376852 -8.7218238,0.03426 H 1.1779891 L 2.8580125,9.771018 1.3567151,9.5654631 2.8580125,9.1200935 1.4282054,8.7432414 2.9295028,8.3321312 1.3567151,7.9895385 3.0009932,7.5099093 1.5711861,6.5849105 3.3226998,6.2765771 1.5711861,5.6599112 2.9295028,5.2145412 1.749912,4.5978751 2.6077962,4.1182459 1.4996956,3.4330614 2.6792866,2.9876916 Z"
       id="path2" />
    <path
       style="display:inline;fill:#a89797;fill-opacity:1;stroke:#747474;stroke-width:0.337995;stroke-linecap:round;stroke-miterlimit:3.8;stroke-opacity:1"
       d="M 7.7217139,2.6132924 7.6238489,10.315911 Z"
       id="path3" />
    <path
       style="fill:#747474;fill-opacity:1;stroke:#747474;stroke-width:0.341928;stroke-linecap:round;stroke-miterlimit:3.8;stroke-opacity:1"
       d="M 7.6907814,2.6826323 V 3.1381136 H 8.2899188 7.7138253 L 7.7023049,3.508192 6.9764271,3.4797249 7.6907829,3.508192 7.7138257,3.8118463 8.3705723,3.7928682 7.7023037,3.8213354 V 4.1914141 H 7.0225123 7.6907809 l 0.023043,0.445992 0.7028344,-0.047447 -0.6913124,0.047447 -0.034564,0.445992 -0.6221808,-0.00949 0.6452247,0.00949 V 5.4724548 H 8.4051378 7.7253473 L 7.7023045,5.9184472 H 7.0570798 7.7138264 L 7.702305,6.3644391 8.3244863,6.3549459 H 7.702305 L 7.690784,6.7534919 7.0801251,6.7155369 7.690784,6.7724729 7.679263,7.1520404 8.2092693,7.1615304 H 7.7023061 L 7.6792631,7.5600764 7.183823,7.5221214 7.610132,7.5410994 7.667742,7.9491348 8.1631821,7.9681128 7.667742,7.9206658 7.690785,8.3002329 7.1492573,8.2812599 H 7.690785 L 7.667742,8.6513375 h 0.5184837 l -0.5069625,0.00949 0.01152,0.3985462 -0.4608747,0.00949 h 0.4839187 l -0.034564,0.3511008 0.4263095,-0.00949 -0.5300059,0.028466 0.06913,0.3416105 -0.6221813,-0.01897 0.5876155,0.01897 0.034564,0.34161 h 0.5645715 l -0.5184844,0.0095 v 0.0854"
       id="path4" />
    <path
       style="fill:#000000;fill-opacity:1;stroke:#000000;stroke-width:0.341928;stroke-linecap:round;stroke-miterlimit:3.8;stroke-opacity:1"
       d="m 6.7602959,10.477105 c 2.3626859,0 2.3626859,0 2.3626859,0 z"
       id="path6" />
  </g>
  <g
     inkscape:groupmode="layer"
     id="layer2"
     inkscape:label="Layer 3">
    <path
       style="display:inline;fill:#000000;fill-opacity:1;stroke:#000000;stroke-width:0.341928;stroke-linecap:round;stroke-miterlimit:3.8;stroke-opacity:1"
       d="M 5.961871,2.4386786 H 9.3185146 Z"
       id="path5" />
  </g>
  <g
     inkscape:groupmode="layer"
     id="layer4"
     inkscape:label="Layer 4">
    <path
       style="fill:none;fill-opacity:1;stroke:#595959;stroke-width:0.169998;stroke-linecap:round;stroke-miterlimit:3.8;stroke-dasharray:none;stroke-opacity:1"
       id="path7"
       d="m 8.027511,3.3195168 a 0.58185452,0.70220029 0 0 1 0.7564592,0.085144 0.58185452,0.70220029 0 0 1 0.041828,0.91549 0.58185452,0.70220029 0 0 1 -0.7441163,0.1849997 0.58185452,0.70220029 0 0 1 -0.2614036,-0.8609 l 0.5445331,0.2474397 z"
       sodipodi:type="arc"
       sodipodi:arc-type="slice"
       sodipodi:start="4.0940288"
       sodipodi:end="3.5017032"
       sodipodi:ry="0.70220029"
       sodipodi:rx="0.58185452"
       sodipodi:cy="3.8916907"
       sodipodi:cx="8.3648119" />
  </g>
</svg>
