<?xml version="1.0" encoding="UTF-8" standalone="no"?>
<!-- Created with Inkscape (http://www.inkscape.org/) -->

<svg
   width="24"
   height="24"
   viewBox="0 0 12.7 12.7"
   version="1.1"
   id="svg1"
   inkscape:version="1.3 (0e150ed6c4, 2023-07-21)"
   sodipodi:docname="file.svg"
   xmlns:inkscape="http://www.inkscape.org/namespaces/inkscape"
   xmlns:sodipodi="http://sodipodi.sourceforge.net/DTD/sodipodi-0.dtd"
   xmlns="http://www.w3.org/2000/svg"
   xmlns:svg="http://www.w3.org/2000/svg">
  <sodipodi:namedview
     id="namedview1"
     pagecolor="#ffffff"
     bordercolor="#000000"
     borderopacity="0.25"
     inkscape:showpageshadow="2"
     inkscape:pageopacity="0.0"
     inkscape:pagecheckerboard="0"
     inkscape:deskcolor="#d1d1d1"
     inkscape:document-units="mm"
     inkscape:zoom="8.1648736"
     inkscape:cx="23.699081"
     inkscape:cy="2.0208519"
     inkscape:window-width="1920"
     inkscape:window-height="974"
     inkscape:window-x="-11"
     inkscape:window-y="-11"
     inkscape:window-maximized="1"
     inkscape:current-layer="layer3" />
  <defs
     id="defs1">
    <inkscape:path-effect
       effect="fillet_chamfer"
       id="path-effect1"
       is_visible="true"
       lpeversion="1"
       nodesatellites_param="F,0,0,1,0,0.63719156,0,1 @ F,0,0,1,0,3.4829048,0,1 @ F,0,0,1,0,0,0,1 @ F,0,0,1,0,0.72427218,0,1"
       radius="0"
       unit="px"
       method="auto"
       mode="F"
       chamfer_steps="1"
       flexible="false"
       use_knot_distance="true"
       apply_no_radius="true"
       apply_with_radius="true"
       only_selected="false"
       hide_knots="false" />
    <linearGradient
       id="swatch45"
       inkscape:swatch="solid">
      <stop
         style="stop-color:#000000;stop-opacity:1;"
         offset="0"
         id="stop45" />
    </linearGradient>
    <linearGradient
       id="swatch44"
       inkscape:swatch="solid">
      <stop
         style="stop-color:#000000;stop-opacity:1;"
         offset="0"
         id="stop44" />
    </linearGradient>
    <linearGradient
       id="swatch43"
       inkscape:swatch="solid">
      <stop
         style="stop-color:#e58b51;stop-opacity:1;"
         offset="0"
         id="stop43" />
    </linearGradient>
    <clipPath
       clipPathUnits="userSpaceOnUse"
       id="clipPath30">
      <path
         id="path31"
         style="fill:#ff0000;fill-opacity:1;fill-rule:nonzero;stroke:none;stroke-width:0.264583"
         d="M 1.2707235,1.4541748 V 3.2204753 H 1.7316772 C 1.4283442,3.0873282 1.5102331,2.702129 1.9776571,2.6923421 c 0.1446154,-0.00303 0.28842,-0.018502 0.4330485,-0.02377 0.2005924,-0.00375 0.4007336,0.015719 0.600997,0.025321 0.1786909,0.00997 0.3581683,0.00628 0.5369179,0.013436 0.079727,0.00319 0.1387496,0.00869 0.2087729,0.014986 0.058692,-0.069058 0.1629757,-0.1173971 0.3095419,-0.1157554 0.031292,3.519e-4 0.064151,0.00312 0.099219,0.00827 0.1805472,0.026503 0.3746027,0.033557 0.5312336,0.1379762 0.012404,0.00855 0.025458,0.015901 0.037207,0.025321 8.466e-4,6.879e-4 -0.00298,0.00198 -0.00206,0.00259 0.036312,0.024273 0.082535,0.035819 0.12299,0.050126 0.074126,0.023479 0.3445528,0.084538 0.3482991,0.1777669 0.00291,0.072356 -0.015198,0.1423403 -0.038758,0.2118733 H 5.4658194 V 2.6794307 c -0.037415,8.731e-4 -0.074926,9.26e-4 -0.1121378,0.00414 -0.0895,0.00584 -0.1789121,0.013264 -0.267684,0.026355 -0.061321,0.00958 -0.1303534,0.014674 -0.1844847,-0.023254 -0.011568,-0.0081 -0.020656,-0.019328 -0.031006,-0.028939 -0.00689,-0.01539 -0.017671,-0.029401 -0.020672,-0.045992 -0.010922,-0.06053 0.026006,-0.1003578 0.072347,-0.1260951 -0.048511,-0.026159 -0.064353,-0.055965 -0.050645,-0.1043956 -3.81e-5,-0.00333 -8.71e-5,-0.0065 0,-0.00982 H 4.871008 c -1.535e-4,0.00104 -3.704e-4,0.00206 -5.292e-4,0.0031 -1.518e-4,9.896e-4 -0.00101,-0.00298 0,-0.0031 h 5.292e-4 c 8.467e-4,-0.00566 8.731e-4,-0.011371 0.00156,-0.017053 1.334e-4,-0.00102 3.705e-4,-0.00209 5.292e-4,-0.0031 v -5.159e-4 c 0.00674,-0.0584 0.00678,-0.1178322 0.01292,-0.1762166 0.00432,-0.063795 0.00955,-0.1274805 0.01447,-0.1912028 -0.017867,0.040088 -0.085029,0.059772 -0.1648476,0.01602 -0.031428,-0.017227 -0.062352,-0.035129 -0.093018,-0.053743 -0.010893,0.00532 -0.022566,0.00941 -0.035657,0.011886 -0.015743,0.00298 -0.032038,-1.019e-4 -0.048059,0 C 4.4711842,1.9490413 4.4104467,1.8849275 4.3459879,1.8319295 4.276974,1.780536 4.2037696,1.7352276 4.1330811,1.686202 4.0730189,1.6436157 4.007245,1.6105692 3.9423951,1.5761312 3.8690145,1.5392348 3.7975646,1.4987173 3.7279379,1.4552083 c -5.556e-4,-3.413e-4 -0.00101,-6.958e-4 -0.00156,-0.00103 z m 2.9770791,0 c 9.26e-4,0.00116 0.00164,0.00246 0.00259,0.00362 0.00746,0.00404 0.014774,0.00835 0.02222,0.012402 0.0013,-0.00222 0.00228,-0.00452 0.00362,-0.00672 2.132e-4,-0.00313 9.525e-4,-0.00623 0.00156,-0.0093 z M 4.900476,1.9378662 c 0.00108,0.00281 0.00188,0.00551 0.00259,0.00827 1.439e-4,-0.0019 3.704e-4,-0.00379 5.292e-4,-0.00568 -0.00122,-0.00104 -0.00193,-0.00162 -0.0031,-0.00259 z m 0.096635,0.6898804 c -0.00509,0.00251 -0.00989,0.00514 -0.012401,0.00775 -0.00164,0.00171 0.00495,-0.001 0.00672,-0.00258 0.00193,-0.00171 0.00384,-0.00331 0.00568,-0.00517 z M 4.903577,2.9000815 c -0.005,0.00135 -0.01,0.00273 -0.014986,0.00414 0.00238,-4.762e-4 0.00488,-5.291e-4 0.00723,-0.00103 0.00262,-5.821e-4 0.010332,-0.0038 0.00775,-0.0031 z" />
    </clipPath>
    <clipPath
       clipPathUnits="userSpaceOnUse"
       id="clipPath39">
      <path
         id="path40"
         style="fill:#ff0000;fill-opacity:1;fill-rule:nonzero;stroke:none;stroke-width:0.264583"
         d="m 1.0392131,2.723348 v 9.287288 H 11.964128 V 2.723348 H 5.6652872 c -0.020714,0.04326 -0.06601,0.085462 -0.1410767,0.1142048 -0.098406,0.03768 -0.050667,0.019508 -0.1426268,0.055811 -0.067956,0.024064 -0.1363424,0.046912 -0.2051555,0.068213 0.015372,0.014719 0.026711,0.030172 0.027389,0.047026 0.00589,0.1465479 -0.074461,0.2839381 -0.1116211,0.4258138 -0.028048,0.00975 -0.055569,0.021188 -0.084233,0.028939 -0.1197073,0.032381 -0.248766,0.00922 -0.3700034,0.00517 C 4.4810082,3.4537449 4.3228755,3.4360477 4.1744223,3.3796385 4.0381481,3.3341934 3.8957454,3.3084281 3.7527426,3.2969562 3.6849383,3.2908708 3.6061454,3.2826026 3.5382854,3.2799039 3.3538104,3.2725643 3.1687222,3.2763399 2.984314,3.2659497 2.7998272,3.2570473 2.6155775,3.2397065 2.4308594,3.2411458 2.2795968,3.2460882 2.1290335,3.2645244 1.9776571,3.2654346 1.9018313,3.2658844 1.8373373,3.2552058 1.7818034,3.238046 v 0.03359 c 0,0.2835437 -0.2868042,0.2835437 -0.2868042,0 V 3.1610483 2.9496917 2.7233488 Z m 0.7425903,0 v 0.00103 c 9.234e-4,-3.175e-4 0.00165,-7.408e-4 0.00259,-0.00103 z" />
    </clipPath>
  </defs>
  <g
     inkscape:groupmode="layer"
     id="layer3"
     inkscape:label="Layer 2">
    <rect
       style="fill:#afc3cc;fill-opacity:1;stroke:#000000;stroke-width:0.0073827;stroke-miterlimit:3.8;stroke-dasharray:none"
       id="rect45"
       width="12.994197"
       height="13.026601"
       x="-0.16190588"
       y="-0.22671604" />
    <path
       style="fill:#b3cab1;fill-opacity:1;stroke:#000000;stroke-width:0.404957;stroke-linecap:round;stroke-miterlimit:3.8;stroke-dasharray:none"
       id="rect55"
       width="9.1215773"
       height="10.908937"
       x="1.8564688"
       y="0.94356704"
       inkscape:path-effect="#path-effect1"
       sodipodi:type="rect"
       d="M 2.4936604,0.94356704 H 7.4951413 A 3.4829048,3.4829048 45 0 1 10.978046,4.4264718 V 11.852504 H 2.580741 A 0.72427218,0.72427218 45 0 1 1.8564688,11.128232 l 0,-9.5474734 A 0.63719156,0.63719156 135 0 1 2.4936604,0.94356704 Z" />
    <path
       style="fill:none;fill-opacity:1;stroke:#000000;stroke-width:0.187325;stroke-linecap:round;stroke-miterlimit:3.8;stroke-dasharray:none"
       d="m 2.8935427,2.0398912 c 0.1140669,-0.0189 0.2438014,0.025034 0.356456,0 0.047156,-0.010479 0.083172,-0.051539 0.1296201,-0.06481 0.1224132,-0.034975 0.3930023,0 0.5184812,0 0.075612,0 0.1577406,-0.030709 0.2268355,0 0.055837,0.024817 0.076568,0.099304 0.1296204,0.1296203 0.028136,0.016077 0.066057,-0.0089 0.097215,0 0.1215663,0.034733 0.2416622,0.076639 0.3564559,0.1296203 0.094984,0.043839 0.044505,0.1012287 0.1296202,0.1620254 0.047334,0.03381 0.1115208,0.03595 0.1620255,0.06481 0.026526,0.015158 0.037484,0.051147 0.06481,0.06481 0.019323,0.00966 0.049534,-0.015276 0.06481,0 0.044537,0.044536 0.052679,0.1174888 0.097215,0.1620253 0.015277,0.015276 0.049534,-0.015276 0.06481,0 0.015277,0.015276 -0.015277,0.049534 0,0.06481 0.034158,0.034158 0.087678,0.040843 0.1296202,0.06481 0.033815,0.019323 0.061055,0.050346 0.097215,0.06481 0.073044,0.029218 0.2918701,0 0.3564557,0 0.082573,0 0.554772,0.021389 0.5832914,0 0.059118,-0.044339 0.1969265,-0.2642327 0.2268355,-0.3240508 0.036006,-0.072011 -0.054008,-0.081013 0,-0.1620253 0.011983,-0.017975 0.049534,0.015276 0.06481,0 0.015277,-0.015276 -0.015277,-0.049534 0,-0.06481 0.015277,-0.015276 0.045487,0.00966 0.06481,0 0.027326,-0.013663 0.043207,-0.043207 0.06481,-0.06481 0.097215,-0.021604 0.1947672,-0.041744 0.2916457,-0.06481 0.1299763,-0.030947 0.2582172,-0.06922 0.388861,-0.097215 0.021124,-0.00453 0.045487,-0.00966 0.06481,0 0.027326,0.013663 0.037484,0.051147 0.06481,0.06481 0.019322,0.00966 0.049534,-0.015276 0.06481,0 0.015277,0.015276 -0.017976,0.052827 0,0.06481 0.1600721,0.1067147 0.076765,-0.2216462 0.1620253,0.1620254 0.02477,0.1114723 -0.048365,0.2067644 0.06481,0.2916456 0.017283,0.012962 0.043207,0 0.06481,0 0.054008,0 0.2132621,-0.017079 0.1620253,0 -0.5660875,0.1886963 0.1437303,-0.2305042 0.5832914,-0.4860761 0.06091,-0.035415 -0.019457,-0.1587355 0,-0.2268355 0.015981,-0.055931 0.052191,-0.1052416 0.06481,-0.1620253 0.00548,-0.024646 -0.045945,-0.1929091 0.06481,-0.1296203 l 0.1620252,0.1296203 c 0.021603,0 0.045488,-0.00966 0.06481,0 0.027326,0.013663 0.036443,0.053463 0.06481,0.06481 0.030087,0.012035 0.070252,-0.017975 0.097215,0 0.017976,0.011983 -0.2215016,0.3245002 0,0.06481 0.031349,-0.036753 -0.2599157,0.3703279 -0.2140875,0.3856039 0.020495,0.00683 0.3965347,-0.3387689 0.4085177,-0.3207939 0.017976,0.026963 -0.016671,0.069428 0,0.097215 0.060639,0.101065 0.1620253,0.054765 0.1620253,0.1944304"
       id="path57"
       sodipodi:nodetypes="cssssscssscssscssssssssccsccsscsssssscccsssssscc" />
    <path
       style="fill:none;fill-opacity:1;stroke:#000000;stroke-width:0.187325;stroke-linecap:round;stroke-miterlimit:3.8;stroke-dasharray:none"
       d="M 2.9164565,3.4025326 C 3.3560091,3.5151213 4.0413619,3.1733791 4.439495,3.2729125 c 0.1073473,0.026837 0.282838,0.2516909 0.2916457,0.2592406 0.075612,0.054008 0.1512237,0.1080169 0.2268355,0.1620252 0.021603,0 0.045488,-0.00966 0.06481,0 0.054653,0.027327 0.072887,0.1069272 0.1296202,0.1296205 0.018939,0.00758 0.9260004,-0.00471 0.9721522,-0.032405 0.033396,-0.020037 0.029355,-0.081099 0.06481,-0.097215 0.5053266,-0.2296937 0.1176507,0.00266 0.4212659,-0.06481 0.056784,-0.012618 0.1060947,-0.04883 0.1620255,-0.06481 0.1720929,-0.04917 0.4960287,0.015208 0.6481014,0 0.3344309,-0.033443 0.2311035,-0.066233 0.5184812,-0.1620256 0.040989,-0.013663 0.099068,0.030552 0.1296204,0 0.015277,-0.015274 0,-0.043207 0,-0.06481 0.032405,0 0.070252,0.017976 0.097215,0 0.017976,-0.011983 -0.019323,-0.055149 0,-0.06481 0.03894,-0.019471 0.3740152,0.2925503 0.4212661,0.3240508 0.017976,0.011983 0.049534,-0.015277 0.06481,0 0.044537,0.044536 0.077298,0.1022733 0.097215,0.1620253 0.02391,0.071732 -0.041942,0.1639226 0,0.2268354 0.011983,0.017976 0.043207,0 0.06481,0 0.043207,0 0.086747,0.00536 0.1296202,0 0.1303935,-0.016298 0.2584674,-0.048511 0.388861,-0.06481 0.042873,-0.00536 0.088631,0.013663 0.1296202,0 0.028984,-0.00966 0.038284,-0.049652 0.06481,-0.06481 0.050505,-0.02886 0.1208937,-0.023678 0.1620253,-0.06481 0.025347,-0.025347 0,-0.2473304 0,-0.2916457"
       id="path58" />
    <path
       style="fill:none;fill-opacity:1;stroke:#000000;stroke-width:0.187325;stroke-linecap:round;stroke-miterlimit:3.8;stroke-dasharray:none"
       d="m 3.0784821,5.0227864 c 0.2234774,-0.049138 0.4932833,0.062751 0.7129116,0 0.046448,-0.013272 0.083792,-0.049534 0.1296201,-0.06481 0.1061905,-0.035397 0.8144193,0 0.9397471,0 0.00101,0 0.5892443,-0.039018 0.745317,0 0.1648756,0.041219 0.085324,0.1206029 0.1296201,0.1944304 0.1466112,0.244352 0.5204267,-0.1816327 0.5832914,-0.2916457 0.064235,-0.1124111 -0.1337765,-0.037223 0.097215,-0.1296202 0.089732,-0.035893 0.697166,0.00879 0.7129116,0.032405 0.017976,0.026963 -0.017976,0.070252 0,0.097215 0.011983,0.017976 0.05098,-0.016595 0.06481,0 0.1932368,0.2318843 0.1620253,0.4385612 0.1620253,0.7129118 0,0.044027 0.031014,0.2606318 0,0.2916455 -0.015277,0.015277 -0.06481,-0.021603 -0.06481,0 0,0.030552 0.037484,0.051147 0.06481,0.06481 0.058081,0.02904 0.3334885,-0.026663 0.3564559,-0.032405 0.4071821,-0.1017955 0.2217663,-0.3387138 0.2916457,-0.5832912 0.015981,-0.055931 0.052191,-0.1052417 0.06481,-0.1620255 0.00937,-0.042178 -0.025924,-0.095055 0,-0.1296202 0.019444,-0.025924 0.067128,0.012036 0.097215,0 0.028367,-0.011348 0.035826,-0.055149 0.06481,-0.06481 0.034212,-0.011404 0.6151253,-0.019558 0.7129116,0 0.053319,0.010663 0.1935525,0.06948 0.2268355,0.097215 0.1395912,0.116326 -0.020772,0.088906 0.1620255,0.1620253 0.020058,0.00802 0.049534,-0.015277 0.06481,0 0.015277,0.015277 -0.015277,0.049534 0,0.06481 0.015277,0.015274 0.049534,-0.015277 0.06481,0 0.027004,0.027004 -0.027004,0.1350211 0,0.1620253 0.121988,0.121988 0.4883377,0.06481 0.6481015,0.06481"
       id="path59" />
    <path
       style="fill:none;fill-opacity:1;stroke:#000000;stroke-width:0.187325;stroke-linecap:round;stroke-miterlimit:3.8;stroke-dasharray:none"
       d="m 3.0784821,6.7726604 c 0.1836287,-0.021603 0.3663746,-0.052906 0.550886,-0.06481 0.1509101,-0.00974 0.3024476,0 0.4536713,0 0.043207,0 0.095055,0.025924 0.1296201,0 0.031157,-0.023368 0.031414,-0.077178 0.06481,-0.097215 0.046312,-0.027787 0.1238356,0.03819 0.1620253,0 0.015277,-0.015277 -0.015277,-0.049534 0,-0.06481 0.034158,-0.034158 0.087678,-0.040843 0.1296205,-0.06481 0.4234262,-0.2419577 -0.2181942,0.1231392 0.1620252,-0.1620253 0.017283,-0.012962 0.049534,0.015274 0.06481,0 0.093006,-0.093006 0.06481,-0.2424588 0.06481,-0.3564559 0,-0.1736026 0.027243,-0.2968082 -0.097215,-0.4212659 -0.0108,-0.010803 0.027574,0.017912 0.032405,0.032405 0.00683,0.020495 -0.015277,0.049534 0,0.06481 0.065704,0.065704 0.1534891,0.1049782 0.2268355,0.1620255 0.204152,0.1587847 -0.1701265,-0.056709 0.2268355,0.2268355 0.017579,0.012557 0.045488,-0.00966 0.06481,0 0.054653,0.027327 0.072887,0.1069269 0.1296202,0.1296202 0.090262,0.036105 0.1994194,-0.030742 0.2916457,0 0.9345798,0.5192109 -0.1088728,0.0013 0.453671,0.1620255 0.1467443,0.041927 -0.043071,0.1727729 0.2268355,0.06481 0.040117,-0.016047 -0.013663,-0.088631 0,-0.1296202 0.015277,-0.045828 0.033373,-0.092943 0.06481,-0.1296204 0.05662,-0.066056 0.1597914,-0.166493 0.2268355,-0.032405 0.019322,0.038645 -0.00773,0.08711 0,0.1296202 0.014068,0.077369 0.051882,0.1492679 0.06481,0.2268355 0.00621,0.037265 -0.010827,0.5724655 0,0.5832914 0.015277,0.015277 0.043207,0 0.06481,0 0.1512237,0 0.3024473,0 0.453671,0 0.021603,0 0.045487,0.00966 0.06481,0 0.00966,-0.00483 -0.00483,-0.022744 0,-0.032405 0.017417,-0.034835 0.040481,-0.066804 0.06481,-0.097215 0.081201,-0.1015019 0.2367722,-0.2403525 0.3564559,-0.2916457 0.1205434,-0.051661 0.7075432,0.033479 0.8749369,0 C 8.8834858,6.5643688 9.1140961,6.5049965 9.3326613,6.4162045 9.4631419,6.3631968 9.5719338,6.2674912 9.689117,6.189369 9.766431,6.137827 9.8502485,6.093048 9.9159524,6.0273437 c 0.015277,-0.015277 0,-0.086414 0,-0.06481 0,0.1068409 0.035133,0.3158662 0,0.4212659 -0.079302,0.2379064 -0.06481,0.028116 -0.06481,0.2268355 0,0.043207 -0.030552,0.099069 0,0.1296204 0.086414,0.086413 0.06481,-0.1080169 0.06481,0.06481"
       id="path60" />
    <path
       style="fill:none;fill-opacity:1;stroke:#000000;stroke-width:0.187325;stroke-linecap:round;stroke-miterlimit:3.8;stroke-dasharray:none"
       d="m 3.046077,7.485572 c 0.3076122,-0.011351 0.6186262,-0.00492 0.8749368,0.1944304 0.030742,0.02391 0.031414,0.077178 0.06481,0.097215 0.096721,0.058032 0.7876739,-0.058395 0.8101269,-0.06481 0.5594996,-0.159857 -0.072971,0.020283 0.2268355,-0.1296202 0.019323,-0.00966 0.052827,0.017976 0.06481,0 0.031836,-0.047755 -0.053629,-0.1445911 0.06481,-0.097215 0.205768,0.082307 0.073011,0.1990749 0.2268355,0.4212659 0.033111,0.047826 0.1146916,0.031 0.1620255,0.06481 0.1068478,0.07632 0.017589,0.1060095 0.1296202,0.1620253 0.1445313,0.072266 0.8901663,-0.1105469 1.0369624,-0.1944304 0.046892,-0.026796 -0.029959,-0.1170877 0,-0.1620253 0.014838,-0.022257 0.1668841,0.011017 0.1944304,0 0.036161,-0.014465 0.06481,-0.043207 0.097215,-0.06481 0.2753183,-0.1835457 0.1944304,-0.051728 0.1944304,-0.4212659 0,-0.032405 0.010247,-0.066473 0,-0.097215 -0.017555,-0.052662 -0.097215,0.063975 -0.097215,0.1296204 0,0.1508167 -0.03842,0.3406421 0.097215,0.453671 0.024895,0.020746 0.070253,-0.017976 0.097215,0 0.017976,0.011983 -0.015277,0.049534 0,0.06481 0.00888,0.00888 0.6186609,0 0.7129116,0 0.1471652,0 0.6902717,-0.034244 0.8101269,0 0.018299,0.00523 -0.01578,0.5832912 0,0.5832912 0.043207,0 -0.00773,-0.08711 0,-0.1296202 0.056342,-0.3098834 0.028391,-0.3137278 0.2916454,-0.5184812 0.017052,-0.013264 0.044038,0.00593 0.06481,0 0.028599,-0.00817 0.2963709,-0.1248952 0.3564559,-0.06481 0.015277,0.015277 -0.017976,0.052827 0,0.06481 0.081012,0.054008 0.090014,-0.036006 0.1620253,0 0.027326,0.013663 0.037484,0.051147 0.06481,0.06481 0.095495,0.047748 0.4390273,0 0.5832923,0"
       id="path61" />
    <path
       style="fill:none;fill-opacity:1;stroke:#000000;stroke-width:0.187325;stroke-linecap:round;stroke-miterlimit:3.8;stroke-dasharray:none"
       d="m 2.9164565,9.235446 c 0.5477502,-0.099591 0.2356893,-0.06481 0.9397474,-0.06481 0.1188185,0 0.2376371,0 0.3564556,0 0.021603,0 0.049534,-0.015277 0.06481,0 0.015277,0.015277 -0.00966,0.045487 0,0.06481 0.024154,0.048307 0.080136,0.078383 0.097215,0.1296201 0.010665,0.031994 -0.056724,0.280851 0.06481,0.2268358 0.07958,-0.035369 0.1477651,-0.093126 0.2268355,-0.1296204 0.062028,-0.028628 0.1382617,-0.025924 0.1944304,-0.06481 0.4067664,-0.2816074 0.032589,-0.1980718 0.4536712,-0.2916457 0.2549324,-0.056651 0.2168004,0.1246029 0.3564557,0.1944307 0.019323,0.00966 0.049534,-0.015277 0.06481,0 0.015277,0.015274 -0.017976,0.052827 0,0.06481 0.1310976,0.087399 0.3377089,-0.1286634 0.3888608,-0.1944303 0.029657,-0.038131 0.038015,-0.089427 0.06481,-0.1296202 0.00599,-0.00899 -0.00599,0.023418 0,0.032405 0.016947,0.025421 0.053464,0.036443 0.06481,0.06481 0.06421,0.1605265 -0.083452,0.043416 0.06481,0.1620256 0.032405,0.021603 0.06481,0.043207 0.097215,0.06481 0,0.021603 -0.015277,0.049534 0,0.06481 0.015277,0.015277 0.052827,-0.017976 0.06481,0 0.017976,0.026963 -0.022913,0.074301 0,0.097215 -0.087201,0.6456074 0.24818,0.1132234 0.3564559,0.1944304 0.057609,0.043207 0.06121,0.1620252 0.1620253,0.1620252 0.021603,0 0,-0.043207 0,-0.06481 0,-0.043207 0,-0.086414 0,-0.1296204 0,-0.082044 -0.032431,-0.2753792 0,-0.3564557 0.014465,-0.036161 0.050346,-0.061055 0.06481,-0.097215 0.00802,-0.020058 -0.015277,-0.049534 0,-0.06481 0.048845,-0.048844 0.2891266,0.063131 0.2916455,0.06481 0.043207,0.043207 0.086414,0.086413 0.1296204,0.1296201 0.032405,0 0.070252,-0.017976 0.097215,0 0.017976,0.011983 -0.019322,0.074471 0,0.06481 0.1219967,-0.060998 0.091275,-0.3087127 0.2916455,-0.3888608 0.020058,-0.00802 0.047528,-0.012962 0.06481,0 0.1795057,0.1346292 -0.015666,0.049573 0.06481,0.1944304 0.00932,0.016767 0.3522853,0.4118824 0.3564556,0.4212658 0.021934,0.049354 -0.027787,0.1157137 0,0.1620256 0.00681,0.011351 0.200668,0 0.2268358,0 0.2444689,0 0.5582259,-0.00734 0.7453167,-0.1944307 0.045792,-0.045792 0.065485,-0.1299575 0.1296202,-0.1620252 0.019323,-0.00966 0.049534,0.015277 0.06481,0 0.015277,-0.015277 -0.017976,-0.052827 0,-0.06481 0.055407,-0.036938 0.611178,0 0.680506,0"
       id="path62" />
    <path
       style="fill:none;fill-opacity:1;stroke:#000000;stroke-width:0.187325;stroke-linecap:round;stroke-miterlimit:3.8;stroke-dasharray:none"
       d="m 2.9164565,10.402029 c 0.3500226,-0.03941 0.6618507,-0.227389 1.0045573,-0.291646 0.0945,-0.01772 -0.061018,0.06019 0,0.19443 0.050963,0.11212 0.1166794,0.236568 0.2268355,0.291646 0.019323,0.0097 0.052827,-0.01798 0.06481,0 0.017976,0.02696 -0.017976,0.07025 0,0.09722 0.025506,0.03826 0.1737281,-0.04855 0.2916457,-0.12962 0.1014876,-0.06977 0.1814897,-0.171758 0.2916457,-0.226835 0.08334,-0.04167 0.3893905,-0.09708 0.5184812,-0.06481 0.1280711,0.03202 0.00557,0.04102 0.1296202,0.129621 0.047334,0.03381 0.1166032,0.02847 0.1620256,0.06481 0.01687,0.0135 -0.015277,0.04953 0,0.06481 0.013451,0.01345 0.2170411,0.002 0.2268354,0 0.1467456,-0.02935 0.1507498,-0.325169 0.1944304,-0.421266 0.022349,-0.04917 0.080136,-0.07838 0.097215,-0.1296203 0.017079,-0.051237 -0.020058,-0.1118799 0,-0.1620253 0.00802,-0.020058 0.043207,0 0.06481,0 0.043207,0 0.087111,-0.00773 0.1296204,0 0.067554,0.012282 0.3130167,0.086281 0.3888608,0.1296201 0.026526,0.015158 0.037484,0.051147 0.06481,0.064812 0.019322,0.0097 0.047527,-0.01296 0.06481,0 0.031157,0.02337 0.027863,0.0849 0.06481,0.09722 0.1229688,0.04099 0.2685116,-0.04814 0.388861,0 0.020058,0.008 -0.015277,0.04953 0,0.06481 0.015277,0.01528 0.045487,-0.0097 0.06481,0 0.054653,0.02733 0.073994,0.104336 0.1296204,0.12962 0.093289,0.0424 0.1970545,0.0578 0.2916457,0.09722 0.03595,0.01498 0.061055,0.05035 0.097215,0.06481 0.083806,0.03352 0.2078394,-0.03352 0.2916457,0 0.028367,0.01135 0.035826,0.05515 0.06481,0.06481 0.026133,0.0087 0.1974493,0.0068 0.2268355,-0.03241 0.052629,-0.07017 -0.085715,-0.251923 0.06481,-0.226836 0.2215174,0.03692 0.3845216,0.170899 0.5832911,0.259241 0.062875,0.02794 0.4759571,0.0047 0.5184812,0 0.024006,-0.0027 0.041378,-0.02655 0.06481,-0.03241 0.1728856,-0.04322 0.4084927,0 0.5832907,0"
       id="path63" />
  </g>
  <g
     inkscape:label="Layer 1"
     inkscape:groupmode="layer"
     id="layer1"
     style="display:inline" />
</svg>
