<?xml version="1.0" encoding="UTF-8" standalone="no"?>
<!-- Created with Inkscape (http://www.inkscape.org/) -->

<svg
   width="24"
   height="24"
   viewBox="0 0 12.7 12.7"
   version="1.1"
   id="svg1"
   inkscape:version="1.3 (0e150ed6c4, 2023-07-21)"
   sodipodi:docname="folder.svg"
   xmlns:inkscape="http://www.inkscape.org/namespaces/inkscape"
   xmlns:sodipodi="http://sodipodi.sourceforge.net/DTD/sodipodi-0.dtd"
   xmlns="http://www.w3.org/2000/svg"
   xmlns:svg="http://www.w3.org/2000/svg">
  <sodipodi:namedview
     id="namedview1"
     pagecolor="#ffffff"
     bordercolor="#000000"
     borderopacity="0.25"
     inkscape:showpageshadow="2"
     inkscape:pageopacity="0.0"
     inkscape:pagecheckerboard="0"
     inkscape:deskcolor="#d1d1d1"
     inkscape:document-units="mm"
     inkscape:zoom="8.1648736"
     inkscape:cx="6.3687452"
     inkscape:cy="12.615015"
     inkscape:window-width="1920"
     inkscape:window-height="974"
     inkscape:window-x="-11"
     inkscape:window-y="-11"
     inkscape:window-maximized="1"
     inkscape:current-layer="layer1" />
  <defs
     id="defs1">
    <linearGradient
       id="swatch45"
       inkscape:swatch="solid">
      <stop
         style="stop-color:#000000;stop-opacity:1;"
         offset="0"
         id="stop45" />
    </linearGradient>
    <linearGradient
       id="swatch44"
       inkscape:swatch="solid">
      <stop
         style="stop-color:#000000;stop-opacity:1;"
         offset="0"
         id="stop44" />
    </linearGradient>
    <linearGradient
       id="swatch43"
       inkscape:swatch="solid">
      <stop
         style="stop-color:#e58b51;stop-opacity:1;"
         offset="0"
         id="stop43" />
    </linearGradient>
    <clipPath
       clipPathUnits="userSpaceOnUse"
       id="clipPath30">
      <path
         id="path31"
         style="fill:#ff0000;fill-opacity:1;fill-rule:nonzero;stroke:none;stroke-width:0.264583"
         d="M 1.2707235,1.4541748 V 3.2204753 H 1.7316772 C 1.4283442,3.0873282 1.5102331,2.702129 1.9776571,2.6923421 c 0.1446154,-0.00303 0.28842,-0.018502 0.4330485,-0.02377 0.2005924,-0.00375 0.4007336,0.015719 0.600997,0.025321 0.1786909,0.00997 0.3581683,0.00628 0.5369179,0.013436 0.079727,0.00319 0.1387496,0.00869 0.2087729,0.014986 0.058692,-0.069058 0.1629757,-0.1173971 0.3095419,-0.1157554 0.031292,3.519e-4 0.064151,0.00312 0.099219,0.00827 0.1805472,0.026503 0.3746027,0.033557 0.5312336,0.1379762 0.012404,0.00855 0.025458,0.015901 0.037207,0.025321 8.466e-4,6.879e-4 -0.00298,0.00198 -0.00206,0.00259 0.036312,0.024273 0.082535,0.035819 0.12299,0.050126 0.074126,0.023479 0.3445528,0.084538 0.3482991,0.1777669 0.00291,0.072356 -0.015198,0.1423403 -0.038758,0.2118733 H 5.4658194 V 2.6794307 c -0.037415,8.731e-4 -0.074926,9.26e-4 -0.1121378,0.00414 -0.0895,0.00584 -0.1789121,0.013264 -0.267684,0.026355 -0.061321,0.00958 -0.1303534,0.014674 -0.1844847,-0.023254 -0.011568,-0.0081 -0.020656,-0.019328 -0.031006,-0.028939 -0.00689,-0.01539 -0.017671,-0.029401 -0.020672,-0.045992 -0.010922,-0.06053 0.026006,-0.1003578 0.072347,-0.1260951 -0.048511,-0.026159 -0.064353,-0.055965 -0.050645,-0.1043956 -3.81e-5,-0.00333 -8.71e-5,-0.0065 0,-0.00982 H 4.871008 c -1.535e-4,0.00104 -3.704e-4,0.00206 -5.292e-4,0.0031 -1.518e-4,9.896e-4 -0.00101,-0.00298 0,-0.0031 h 5.292e-4 c 8.467e-4,-0.00566 8.731e-4,-0.011371 0.00156,-0.017053 1.334e-4,-0.00102 3.705e-4,-0.00209 5.292e-4,-0.0031 v -5.159e-4 c 0.00674,-0.0584 0.00678,-0.1178322 0.01292,-0.1762166 0.00432,-0.063795 0.00955,-0.1274805 0.01447,-0.1912028 -0.017867,0.040088 -0.085029,0.059772 -0.1648476,0.01602 -0.031428,-0.017227 -0.062352,-0.035129 -0.093018,-0.053743 -0.010893,0.00532 -0.022566,0.00941 -0.035657,0.011886 -0.015743,0.00298 -0.032038,-1.019e-4 -0.048059,0 C 4.4711842,1.9490413 4.4104467,1.8849275 4.3459879,1.8319295 4.276974,1.780536 4.2037696,1.7352276 4.1330811,1.686202 4.0730189,1.6436157 4.007245,1.6105692 3.9423951,1.5761312 3.8690145,1.5392348 3.7975646,1.4987173 3.7279379,1.4552083 c -5.556e-4,-3.413e-4 -0.00101,-6.958e-4 -0.00156,-0.00103 z m 2.9770791,0 c 9.26e-4,0.00116 0.00164,0.00246 0.00259,0.00362 0.00746,0.00404 0.014774,0.00835 0.02222,0.012402 0.0013,-0.00222 0.00228,-0.00452 0.00362,-0.00672 2.132e-4,-0.00313 9.525e-4,-0.00623 0.00156,-0.0093 z M 4.900476,1.9378662 c 0.00108,0.00281 0.00188,0.00551 0.00259,0.00827 1.439e-4,-0.0019 3.704e-4,-0.00379 5.292e-4,-0.00568 -0.00122,-0.00104 -0.00193,-0.00162 -0.0031,-0.00259 z m 0.096635,0.6898804 c -0.00509,0.00251 -0.00989,0.00514 -0.012401,0.00775 -0.00164,0.00171 0.00495,-0.001 0.00672,-0.00258 0.00193,-0.00171 0.00384,-0.00331 0.00568,-0.00517 z M 4.903577,2.9000815 c -0.005,0.00135 -0.01,0.00273 -0.014986,0.00414 0.00238,-4.762e-4 0.00488,-5.291e-4 0.00723,-0.00103 0.00262,-5.821e-4 0.010332,-0.0038 0.00775,-0.0031 z" />
    </clipPath>
    <clipPath
       clipPathUnits="userSpaceOnUse"
       id="clipPath39">
      <path
         id="path40"
         style="fill:#ff0000;fill-opacity:1;fill-rule:nonzero;stroke:none;stroke-width:0.264583"
         d="m 1.0392131,2.723348 v 9.287288 H 11.964128 V 2.723348 H 5.6652872 c -0.020714,0.04326 -0.06601,0.085462 -0.1410767,0.1142048 -0.098406,0.03768 -0.050667,0.019508 -0.1426268,0.055811 -0.067956,0.024064 -0.1363424,0.046912 -0.2051555,0.068213 0.015372,0.014719 0.026711,0.030172 0.027389,0.047026 0.00589,0.1465479 -0.074461,0.2839381 -0.1116211,0.4258138 -0.028048,0.00975 -0.055569,0.021188 -0.084233,0.028939 -0.1197073,0.032381 -0.248766,0.00922 -0.3700034,0.00517 C 4.4810082,3.4537449 4.3228755,3.4360477 4.1744223,3.3796385 4.0381481,3.3341934 3.8957454,3.3084281 3.7527426,3.2969562 3.6849383,3.2908708 3.6061454,3.2826026 3.5382854,3.2799039 3.3538104,3.2725643 3.1687222,3.2763399 2.984314,3.2659497 2.7998272,3.2570473 2.6155775,3.2397065 2.4308594,3.2411458 2.2795968,3.2460882 2.1290335,3.2645244 1.9776571,3.2654346 1.9018313,3.2658844 1.8373373,3.2552058 1.7818034,3.238046 v 0.03359 c 0,0.2835437 -0.2868042,0.2835437 -0.2868042,0 V 3.1610483 2.9496917 2.7233488 Z m 0.7425903,0 v 0.00103 c 9.234e-4,-3.175e-4 0.00165,-7.408e-4 0.00259,-0.00103 z" />
    </clipPath>
  </defs>
  <g
     inkscape:groupmode="layer"
     id="layer3"
     inkscape:label="Layer 2">
    <rect
       style="fill:#d38d5f;fill-opacity:1;stroke:#000000;stroke-width:0.0073827;stroke-miterlimit:3.8;stroke-dasharray:none"
       id="rect45"
       width="12.994197"
       height="13.026601"
       x="-0.16190588"
       y="-0.22671604" />
  </g>
  <g
     inkscape:label="Layer 1"
     inkscape:groupmode="layer"
     id="layer1"
     style="display:inline">
    <rect
       style="fill:#000000;fill-opacity:0;stroke:#000000;stroke-width:0.514628;stroke-miterlimit:3.8;stroke-dasharray:none"
       id="rect1"
       height="8.7725954"
       x="1.2963362"
       y="2.980504"
       width="10.410463"
       clip-path="url(#clipPath39)" />
    <path
       style="fill:#000000;fill-opacity:0;stroke:#000000;stroke-width:0.483394;stroke-miterlimit:3.8;stroke-dasharray:none"
       d="M 1.4550293,4.4223725 C 5.4878665,3.0704554 5.4878665,3.0704554 5.4878665,3.0704554 Z"
       id="path32" />
    <path
       style="fill:#000000;fill-opacity:0;stroke:#000000;stroke-width:0.483394;stroke-miterlimit:3.8;stroke-dasharray:none"
       d="M 5.6826342,3.0704554 C 4.6629679,1.3977447 4.2619755,1.4321155 4.2619755,1.4321155 l 0.2291387,0.1145692 0.3780784,0.3780785 0.2635092,0.3322507 0.2520524,0.3666216 z"
       id="path41" />
    <path
       style="fill:#000000;fill-opacity:0;stroke:#000000;stroke-width:0.483394;stroke-miterlimit:3.8;stroke-dasharray:none"
       d="M 4.0213801,1.4664862 C 1.6841678,1.5123139 1.4206585,1.500857 1.4206585,1.500857 Z"
       id="path42" />
    <path
       style="fill:#000000;fill-opacity:0;stroke:#000000;stroke-width:0.483394;stroke-miterlimit:3.8;stroke-dasharray:none"
       d="M 1.202977,1.3175462 C 1.271719,4.5369419 1.271719,4.5369419 1.271719,4.5369419 Z"
       id="path43" />
    <path
       style="fill:#d4aa00;fill-opacity:1;stroke:#000000;stroke-width:0.00330685;stroke-miterlimit:3.8;stroke-dasharray:none"
       d="M 5.8788418,30.523723 V 17.62975 l 7.5935042,-2.554372 c 4.176427,-1.404905 7.593504,-2.602113 7.593504,-2.660463 0,-0.05902 4.917616,-0.10609 11.084066,-0.10609 H 43.233982 V 27.86326 43.417696 H 24.556412 5.8788418 Z"
       id="path46"
       transform="scale(0.26458333)" />
    <path
       style="fill:#d4aa00;fill-opacity:1;stroke:#000000;stroke-width:0.00330685;stroke-miterlimit:3.8;stroke-dasharray:none"
       d="M 5.7749102,11.727065 C 5.6937214,9.7230531 5.5958097,7.7665011 5.5573286,7.3791712 L 5.4873631,6.6749349 6.8772421,6.6638893 C 7.6416757,6.6578141 10.003217,6.611181 12.125111,6.56026 c 4.237574,-0.1016929 3.985127,-0.1372742 4.84291,0.6825873 0.868549,0.8301506 2.750594,3.2738847 2.750594,3.5714977 0,0.131747 -13.1562257,4.559355 -13.5423603,4.557558 -0.2476169,-0.0012 -0.2572843,-0.08895 -0.4013445,-3.644838 z M 7.07043,12.234829 c -0.040698,-0.0407 -0.1463332,-0.04505 -0.2347455,-0.0097 -0.097703,0.0391 -0.068682,0.06812 0.073996,0.074 0.1291099,0.0053 0.2014472,-0.02363 0.1607496,-0.06433 z m 3.00321,-0.0163 c -0.3536488,-0.02474 -0.9323473,-0.02474 -1.2859963,0 -0.3536491,0.02474 -0.0643,0.04498 0.6429983,0.04498 0.707298,0 0.996647,-0.02024 0.642998,-0.04498 z"
       id="path47"
       transform="scale(0.26458333)" />
    <path
       style="fill:#d4aa00;fill-opacity:1;stroke:#000000;stroke-width:0.00330685;stroke-miterlimit:3.8;stroke-dasharray:none"
       d="M 5.950565,14.115344 C 5.910078,13.492248 5.8210891,11.68726 5.7528118,10.104259 5.6845345,8.5212587 5.6034837,7.1110154 5.5726988,6.9703855 5.5168657,6.7153312 5.529297,6.7144973 10.5662,6.6354203 c 2.77721,-0.043601 5.187259,-0.044164 5.355663,-0.00125 0.501821,0.1278745 0.902626,0.470263 1.800956,1.5384708 1.114833,1.3256527 1.750844,2.2201649 1.750844,2.4624599 0,0.107468 -0.101348,0.249636 -0.225219,0.31593 -0.437567,0.234179 -12.6838496,4.297216 -12.952114,4.297216 -0.2562992,0 -0.2764404,-0.06599 -0.345765,-1.132903 z M 7.07043,12.234829 c -0.040698,-0.0407 -0.1463332,-0.04505 -0.2347455,-0.0097 -0.097703,0.0391 -0.068682,0.06812 0.073996,0.074 0.1291099,0.0053 0.2014472,-0.02363 0.1607496,-0.06433 z m 2.6942889,-0.01539 c -0.254109,-0.02651 -0.639908,-0.02607 -0.8573311,9.88e-4 -0.2174232,0.02706 -0.00952,0.04875 0.4620163,0.04821 0.4715321,-5.44e-4 0.6494239,-0.02268 0.3953148,-0.04919 z"
       id="path48"
       transform="scale(0.26458333)" />
    <path
       style="fill:#ffe680;fill-opacity:1;stroke:#000000;stroke-width:0.00330685;stroke-miterlimit:3.8;stroke-dasharray:none"
       d="M 5.9529844,14.176582 C 5.9120986,13.587167 5.8218583,11.809736 5.7524504,10.226735 5.6830424,8.6437345 5.5979817,7.205847 5.5634265,7.0314294 L 5.5005989,6.7143067 10.558136,6.6331443 c 2.781646,-0.044639 5.195323,-0.045115 5.363727,-0.00106 0.507948,0.1328896 0.942565,0.5029435 1.82406,1.5530917 0.876598,1.0443138 1.850216,2.382469 1.850216,2.542964 0,0.05136 -0.316906,0.213986 -0.704236,0.361404 C 17.312624,11.690618 6.5333157,15.24748 6.2898906,15.247849 6.0470775,15.248216 6.0217291,15.167615 5.9529844,14.176582 Z M 7.07043,12.234829 c -0.040698,-0.0407 -0.1463332,-0.04505 -0.2347455,-0.0097 -0.097703,0.0391 -0.068682,0.06812 0.073996,0.074 0.1291099,0.0053 0.2014472,-0.02363 0.1607496,-0.06433 z m 2.6374667,-0.01222 c -0.1506377,-0.02907 -0.4262084,-0.02982 -0.6123793,-0.0017 -0.186171,0.02815 -0.062922,0.05194 0.2738867,0.05286 0.3368086,9.2e-4 0.4891302,-0.02211 0.3384926,-0.05119 z"
       id="path49"
       transform="scale(0.26458333)" />
    <path
       style="fill:#ffe680;fill-opacity:1;stroke:#000000;stroke-width:0.00330685;stroke-miterlimit:3.8;stroke-dasharray:none"
       d="m 5.9088991,30.544196 0.031181,-12.873499 6.2462689,-2.11061 c 3.435448,-1.160835 6.880082,-2.337013 7.654742,-2.613729 l 1.408472,-0.503119 10.99221,-0.08499 10.992209,-0.08499 v 15.57222 15.57222 H 24.55585 5.8777184 Z"
       id="path50"
       transform="scale(0.26458333)" />
    <path
       style="fill:#c87137;fill-opacity:1;stroke:#000000;stroke-width:0.00330685;stroke-miterlimit:3.8;stroke-dasharray:none"
       d="M 6.0707564,14.727723 C 5.967191,14.084972 5.623567,6.8893844 5.6931166,6.8198348 c 0.034909,-0.034909 2.3391698,-0.089149 5.1205794,-0.1205325 5.811816,-0.065577 5.405376,-0.134769 6.501426,1.1067953 0.870204,0.9857346 2.157208,2.6889314 2.15796,2.8558064 3.19e-4,0.07094 -0.536782,0.326624 -1.193558,0.568191 -2.03902,0.749964 -11.6521821,3.895675 -11.9050238,3.895675 -0.1755193,0 -0.2567619,-0.106466 -0.3037438,-0.398047 z M 7.07043,12.234829 c -0.040698,-0.0407 -0.1463332,-0.04505 -0.2347455,-0.0097 -0.097703,0.0391 -0.068682,0.06812 0.073996,0.074 0.1291099,0.0053 0.2014472,-0.02363 0.1607496,-0.06433 z m 2.5759727,-0.01015 c -0.1170976,-0.03065 -0.3375541,-0.03177 -0.4899035,-0.0025 -0.1523492,0.02929 -0.056542,0.05438 0.2129049,0.05574 0.2694469,0.0014 0.3940963,-0.02261 0.2769986,-0.05326 z"
       id="path51"
       transform="scale(0.26458333)" />
    <path
       style="fill:#c87137;fill-opacity:1;stroke:#000000;stroke-width:0.00330685;stroke-miterlimit:3.8;stroke-dasharray:none"
       d="M 6.1956897,14.898064 C 6.1168644,14.770522 5.9188089,11.769879 5.8054016,8.9849985 5.7267979,7.0547723 5.7346298,6.9434315 5.9537237,6.8763941 6.080943,6.8374681 8.36204,6.7936973 11.022828,6.7791255 c 5.561908,-0.03046 5.191078,-0.098205 6.29196,1.1494479 0.773722,0.8768743 2.036399,2.5394766 2.036399,2.6813816 0,0.05237 -0.25409,0.207618 -0.564645,0.344991 -0.814141,0.360133 -12.0121123,4.048348 -12.2913896,4.048348 -0.1289347,0 -0.2636929,-0.04735 -0.2994627,-0.10523 z M 7.07043,12.234829 c -0.040698,-0.0407 -0.1463332,-0.04505 -0.2347455,-0.0097 -0.097703,0.0391 -0.068682,0.06812 0.073996,0.074 0.1291099,0.0053 0.2014472,-0.02363 0.1607496,-0.06433 z m 2.5156378,-0.0063 c -0.08292,-0.03355 -0.2482626,-0.03559 -0.3674276,-0.0045 -0.1191651,0.03105 -0.051321,0.0585 0.1507639,0.061 0.2020851,0.0025 0.2995838,-0.02291 0.2166637,-0.05646 z"
       id="path52"
       transform="scale(0.26458333)" />
    <path
       style="fill:#c87137;fill-opacity:1;stroke:#000000;stroke-width:0.00330685;stroke-miterlimit:3.8;stroke-dasharray:none"
       d="M 6.1956897,14.898064 C 6.1168644,14.770522 5.9188089,11.769879 5.8054016,8.9849985 5.7267979,7.0547723 5.7346298,6.9434315 5.9537237,6.8763941 6.080943,6.8374681 8.3651455,6.7924659 11.029729,6.7763892 c 5.663121,-0.034168 5.162243,-0.1471993 6.566088,1.4817392 1.234372,1.4322921 1.825708,2.3146866 1.661341,2.4790546 -0.228207,0.228207 -12.3154313,4.266111 -12.7703473,4.266111 -0.1243468,0 -0.2553512,-0.04735 -0.291121,-0.10523 z M 7.07043,12.234829 c -0.040698,-0.0407 -0.1463332,-0.04505 -0.2347455,-0.0097 -0.097703,0.0391 -0.068682,0.06812 0.073996,0.074 0.1291099,0.0053 0.2014472,-0.02363 0.1607496,-0.06433 z m 2.5133068,-0.0071 c -0.084202,-0.03398 -0.2219875,-0.03398 -0.3061896,0 -0.084202,0.03398 -0.01531,0.06178 0.1530948,0.06178 0.1684043,0 0.237297,-0.0278 0.1530948,-0.06178 z"
       id="path53"
       transform="scale(0.26458333)" />
    <path
       style="fill:#c87137;fill-opacity:1;stroke:#000000;stroke-width:0.00330685;stroke-miterlimit:3.8;stroke-dasharray:none"
       d="M 6.1975761,14.901116 C 6.112861,14.764044 5.9110283,11.770575 5.8069427,9.1074596 5.7267892,7.0566693 5.7342335,6.9435518 5.9537699,6.8763795 c 0.1271938,-0.038918 2.4113756,-0.083914 5.0759591,-0.09999 5.666688,-0.03419 5.159259,-0.1496493 6.581101,1.4974493 1.235807,1.4315911 1.817048,2.2926242 1.65621,2.4534612 -0.258867,0.258867 -12.2854733,4.277026 -12.7992097,4.276291 -0.1139075,-1.63e-4 -0.2355219,-0.04628 -0.2702542,-0.102475 z"
       id="path54"
       transform="scale(0.26458333)" />
    <path
       style="fill:#ffb380;fill-opacity:1;stroke:#000000;stroke-width:0.00330685;stroke-miterlimit:3.8;stroke-dasharray:none"
       d="M 6.1915805,14.891415 C 6.0001519,14.581677 5.6655496,6.9904705 5.8386113,6.8835125 c 0.06463,-0.039943 2.3460223,-0.086051 5.0697617,-0.1024607 5.646696,-0.03402 5.287446,-0.093617 6.333221,1.0506268 0.754086,0.8250902 2.109593,2.6089684 2.109593,2.7762714 0,0.06665 -0.19772,0.2038 -0.439378,0.304772 -1.517873,0.634207 -12.022858,4.090572 -12.4325432,4.090572 -0.1201971,0 -0.2496555,-0.05035 -0.2876853,-0.111879 z"
       id="path55"
       transform="scale(0.26458333)" />
  </g>
</svg>
